<svg xmlns="http://www.w3.org/2000/svg" viewBox="0 0 512 128" fill="white">
  <g transform="translate(10, 20)">
    <path d="M60 0C43.5 0 30 13.5 30 30v48c0 16.5 13.5 30 30 30h48c16.5 0 30-13.5 30-30V30c0-16.5-13.5-30-30-30H60zm0 20h48c5.5 0 10 4.5 10 10v48c0 5.5-4.5 10-10 10H60c-5.5 0-10-4.5-10-10V30c0-5.5 4.5-10 10-10z"/>
    <path d="M30 0C13.5 0 0 13.5 0 30v48c0 16.5 13.5 30 30 30h10V30c0-5.5 4.5-10 10-10h48c0-11-9-20-20-20H30z"/>
  </g>
  <g transform="translate(150, 0)">
    <path d="M24.336 88V40.8h-16.8V28.4h46.368v12.4h-16.8V88H24.336zM60.539 88V28.4h12.768V88H60.539zM108.539 88.672c-5.376 0-10.192-1.12-14.448-3.36-4.256-2.24-7.616-5.376-10.08-9.408-2.464-4.032-3.696-8.624-3.696-13.776 0-5.152 1.232-9.744 3.696-13.776 2.464-4.032 5.824-7.168 10.08-9.408 4.256-2.24 9.072-3.36 14.448-3.36 5.376 0 10.16 1.12 14.352 3.36 4.256 2.24 7.584 5.376 9.984 9.408 2.464 4.032 3.696 8.624 3.696 13.776 0 5.152-1.232 9.744-3.696 13.776-2.4 4.032-5.728 7.168-9.984 9.408-4.192 2.24-8.976 3.36-14.352 3.36zm0-12.096c4.48 0 8.144-1.456 10.992-4.368 2.912-2.912 4.368-6.816 4.368-11.712 0-4.896-1.456-8.8-4.368-11.712-2.848-2.912-6.512-4.368-10.992-4.368-4.48 0-8.176 1.456-11.088 4.368-2.848 2.912-4.272 6.816-4.272 11.712 0 4.896 1.424 8.8 4.272 11.712 2.912 2.912 6.608 4.368 11.088 4.368zM171.133 88.672c-5.376 0-10.192-1.12-14.448-3.36-4.256-2.24-7.616-5.376-10.08-9.408-2.464-4.032-3.696-8.624-3.696-13.776 0-5.152 1.232-9.744 3.696-13.776 2.464-4.032 5.824-7.168 10.08-9.408 4.256-2.24 9.072-3.36 14.448-3.36 5.376 0 10.16 1.12 14.352 3.36 4.256 2.24 7.584 5.376 9.984 9.408 2.464 4.032 3.696 8.624 3.696 13.776 0 5.152-1.232 9.744-3.696 13.776-2.4 4.032-5.728 7.168-9.984 9.408-4.192 2.24-8.976 3.36-14.352 3.36zm0-12.096c4.48 0 8.144-1.456 10.992-4.368 2.912-2.912 4.368-6.816 4.368-11.712 0-4.896-1.456-8.8-4.368-11.712-2.848-2.912-6.512-4.368-10.992-4.368-4.48 0-8.176 1.456-11.088 4.368-2.848 2.912-4.272 6.816-4.272 11.712 0 4.896 1.424 8.8 4.272 11.712 2.912 2.912 6.608 4.368 11.088 4.368zM233.727 88V28.4h12.768v47.04h29.184V88H233.727zM310.32 88V28.4h12.768V88H310.32zM359.32 88V28.4h12.768v47.04h29.184V88H359.32z"/>
  </g>
</svg>